<?xml version="1.0" encoding="UTF-8" standalone="no"?>
<!-- Created with Inkscape (http://www.inkscape.org/) -->

<svg
   width="121.92007mm"
   height="35.805248mm"
   viewBox="0 0 121.92009 35.805248"
   version="1.1"
   id="svg1"
   xmlns="http://www.w3.org/2000/svg"
   xmlns:svg="http://www.w3.org/2000/svg">
  <defs
     id="defs1" />
  <g
     id="layer1"
     transform="translate(-52.873167,-118.10323)">
    <g
       id="text1"
       style="font-size:3.175px;fill:none;stroke-width:0.264999"
       aria-label="                                              ▄   ▄             &#10; ▄███████   ▄███████  ▄████████▀  ▄█   █▄   ▄██   ██▄   ▄███████&#10;███   ███  ███   ███ ▀▀▀▀███▀▀   ███   ███  ███   ███  ███   ███&#10;███   ███  ███   ███     ███     ███   ███  ███   ███  ███   ███&#10;███▄▄▄███ ▄███▄▄▄██▀     ███    ▄███▄▄▄███▄ ███   ███  ███▄▄▄██▀&#10;███▀▀▀███ ▀███▀▀▀▀       ███   ▀▀███▀▀▀███  ███   ███  ███▀▀▀▀  &#10;███   ███ ██████████     ███     ███   ███  ███   ███  █████████&#10;███   ███  ███   ███     ███     ███   ███  ███   ███  ███   ███&#10;███   █▀   ███   ██▀     ██▀     ███   █▀    ▀█████▀   ███   ██▀&#10;           ▀▀▀   ▀       ▀                             ▀▀▀   ▀"
       transform="translate(-19.299906,-5.3691469)">
      <path
         style="font-family:'JetBrainsMono Nerd Font';-inkscape-font-specification:'JetBrainsMono Nerd Font';fill:#000000;stroke-width:0.265"
         d="m 159.80312,125.56788 v -2.0955 h 1.905 v 2.0955 z m 7.62001,0 v -2.0955 h 1.905 v 2.0955 z"
         id="path29" />
      <path
         style="font-family:'JetBrainsMono Nerd Font';-inkscape-font-specification:'JetBrainsMono Nerd Font';fill:#000000;stroke-width:0.265"
         d="m 74.078074,129.54624 v -2.0955 h 1.905 v 2.0955 z m 1.905001,0 v -4.191 h 1.905 v 4.191 z m 1.905001,0 v -4.191 h 1.905 v 4.191 z m 1.905001,0 v -4.191 h 1.905 v 4.191 z m 1.905001,0 v -4.191 h 1.905 v 4.191 z m 1.905002,0 v -4.191 h 1.905 v 4.191 z m 1.905001,0 v -4.191 h 1.905 v 4.191 z m 1.905001,0 v -4.191 h 1.905 v 4.191 z m 7.620005,0 v -2.0955 h 1.905 v 2.0955 z m 1.905,0 v -4.191 h 1.905 v 4.191 z m 1.905003,0 v -4.191 h 1.905 v 4.191 z m 1.905,0 v -4.191 h 1.905 v 4.191 z m 1.905,0 v -4.191 h 1.905 v 4.191 z m 1.905,0 v -4.191 h 1.905 v 4.191 z m 1.905,0 v -4.191 h 1.905 v 4.191 z m 1.90501,0 v -4.191 h 1.905 v 4.191 z m 5.715,0 v -2.0955 h 1.905 v 2.0955 z m 1.905,0 v -4.191 h 1.905 v 4.191 z m 1.905,0 v -4.191 h 1.905 v 4.191 z m 1.905,0 v -4.191 h 1.905 v 4.191 z m 1.905,0 v -4.191 h 1.905 v 4.191 z m 1.905,0 v -4.191 h 1.905 v 4.191 z m 1.90501,0 v -4.191 h 1.905 v 4.191 z m 1.905,0 v -4.191 h 1.905 v 4.191 z m 1.905,0 v -4.191 h 1.905 v 4.191 z m 1.905,-2.0955 v -2.0955 h 1.905 v 2.0955 z m 5.71501,2.0955 v -2.0955 h 1.905 v 2.0955 z m 1.90499,0 v -4.191 h 1.905 v 4.191 z m 7.62001,0 v -4.191 h 1.905 v 4.191 z m 1.905,0 v -2.0955 h 1.905 v 2.0955 z m 7.62001,0 v -2.0955 h 1.905 v 2.0955 z m 1.90499,0 v -4.191 h 1.905 v 4.191 z m 1.905,0 v -4.191 h 1.905 v 4.191 z m 7.62001,0 v -4.191 h 1.905 v 4.191 z m 1.905,0 v -4.191 h 1.905 v 4.191 z m 1.905,0 v -2.0955 h 1.905 v 2.0955 z m 7.62001,0 v -2.0955 h 1.905 v 2.0955 z m 1.905,0 v -4.191 h 1.905 v 4.191 z m 1.905,0 v -4.191 h 1.905 v 4.191 z m 1.905,0 v -4.191 h 1.905 v 4.191 z m 1.905,0 v -4.191 h 1.905 v 4.191 z m 1.905,0 v -4.191 h 1.905 v 4.191 z m 1.905,0 v -4.191 h 1.905 v 4.191 z m 1.90501,0 v -4.191 h 1.905 v 4.191 z"
         id="path30" />
      <path
         style="font-family:'JetBrainsMono Nerd Font';-inkscape-font-specification:'JetBrainsMono Nerd Font';fill:#000000;stroke-width:0.265"
         d="m 72.173073,133.5246 v -4.191 h 1.905 v 4.191 z m 1.905001,0 v -4.191 h 1.905 v 4.191 z m 1.905001,0 v -4.191 h 1.905 v 4.191 z m 7.620005,0 v -4.191 h 1.905 v 4.191 z m 1.905001,0 v -4.191 h 1.905 v 4.191 z m 1.905001,0 v -4.191 h 1.905 v 4.191 z m 5.715004,0 v -4.191 h 1.905 v 4.191 z m 1.905001,0 v -4.191 h 1.905 v 4.191 z m 1.905,0 v -4.191 h 1.905 v 4.191 z m 7.620003,0 v -4.191 h 1.905 v 4.191 z m 1.905,0 v -4.191 h 1.905 v 4.191 z m 1.90501,0 v -4.191 h 1.905 v 4.191 z m 3.81,-2.0955 v -2.0955 h 1.905 v 2.0955 z m 1.905,0 v -2.0955 h 1.905 v 2.0955 z m 1.905,0 v -2.0955 h 1.905 v 2.0955 z m 1.905,0 v -2.0955 h 1.905 v 2.0955 z m 1.905,2.0955 v -4.191 h 1.905 v 4.191 z m 1.905,0 v -4.191 h 1.905 v 4.191 z m 1.905,0 v -4.191 h 1.905 v 4.191 z m 1.90501,-2.0955 v -2.0955 h 1.905 v 2.0955 z m 1.905,0 v -2.0955 h 1.905 v 2.0955 z m 7.62,2.0955 v -4.191 h 1.905 v 4.191 z m 1.90501,0 v -4.191 h 1.905 v 4.191 z m 1.90499,0 v -4.191 h 1.905 v 4.191 z m 7.62001,0 v -4.191 h 1.905 v 4.191 z m 1.905,0 v -4.191 h 1.905 v 4.191 z m 1.905,0 v -4.191 h 1.905 v 4.191 z m 5.71501,0 v -4.191 h 1.905 v 4.191 z m 1.90499,0 v -4.191 h 1.905 v 4.191 z m 1.905,0 v -4.191 h 1.905 v 4.191 z m 7.62001,0 v -4.191 h 1.905 v 4.191 z m 1.905,0 v -4.191 h 1.905 v 4.191 z m 1.905,0 v -4.191 h 1.905 v 4.191 z m 5.71501,0 v -4.191 h 1.905 v 4.191 z m 1.905,0 v -4.191 h 1.905 v 4.191 z m 1.905,0 v -4.191 h 1.905 v 4.191 z m 7.62,0 v -4.191 h 1.905 v 4.191 z m 1.905,0 v -4.191 h 1.905 v 4.191 z m 1.90501,0 v -4.191 h 1.905 v 4.191 z"
         id="path31" />
      <path
         style="font-family:'JetBrainsMono Nerd Font';-inkscape-font-specification:'JetBrainsMono Nerd Font';fill:#000000;stroke-width:0.265"
         d="m 72.173073,137.50296 v -4.191 h 1.905 v 4.191 z m 1.905001,0 v -4.191 h 1.905 v 4.191 z m 1.905001,0 v -4.191 h 1.905 v 4.191 z m 7.620005,0 v -4.191 h 1.905 v 4.191 z m 1.905001,0 v -4.191 h 1.905 v 4.191 z m 1.905001,0 v -4.191 h 1.905 v 4.191 z m 5.715004,0 v -4.191 h 1.905 v 4.191 z m 1.905001,0 v -4.191 h 1.905 v 4.191 z m 1.905,0 v -4.191 h 1.905 v 4.191 z m 7.620003,0 v -4.191 h 1.905 v 4.191 z m 1.905,0 v -4.191 h 1.905 v 4.191 z m 1.90501,0 v -4.191 h 1.905 v 4.191 z m 11.43,0 v -4.191 h 1.905 v 4.191 z m 1.905,0 v -4.191 h 1.905 v 4.191 z m 1.905,0 v -4.191 h 1.905 v 4.191 z m 11.43001,0 v -4.191 h 1.905 v 4.191 z m 1.90501,0 v -4.191 h 1.905 v 4.191 z m 1.90499,0 v -4.191 h 1.905 v 4.191 z m 7.62001,0 v -4.191 h 1.905 v 4.191 z m 1.905,0 v -4.191 h 1.905 v 4.191 z m 1.905,0 v -4.191 h 1.905 v 4.191 z m 5.71501,0 v -4.191 h 1.905 v 4.191 z m 1.90499,0 v -4.191 h 1.905 v 4.191 z m 1.905,0 v -4.191 h 1.905 v 4.191 z m 7.62001,0 v -4.191 h 1.905 v 4.191 z m 1.905,0 v -4.191 h 1.905 v 4.191 z m 1.905,0 v -4.191 h 1.905 v 4.191 z m 5.71501,0 v -4.191 h 1.905 v 4.191 z m 1.905,0 v -4.191 h 1.905 v 4.191 z m 1.905,0 v -4.191 h 1.905 v 4.191 z m 7.62,0 v -4.191 h 1.905 v 4.191 z m 1.905,0 v -4.191 h 1.905 v 4.191 z m 1.90501,0 v -4.191 h 1.905 v 4.191 z"
         id="path32" />
      <path
         style="font-family:'JetBrainsMono Nerd Font';-inkscape-font-specification:'JetBrainsMono Nerd Font';fill:#000000;stroke-width:0.265"
         d="m 72.173073,141.48132 v -4.191 h 1.905 v 4.191 z m 1.905001,0 v -4.191 h 1.905 v 4.191 z m 1.905001,0 v -4.191 h 1.905 v 4.191 z m 1.905001,0 v -2.0955 h 1.905 v 2.0955 z m 1.905001,0 v -2.0955 h 1.905 v 2.0955 z m 1.905001,0 v -2.0955 h 1.905 v 2.0955 z m 1.905002,0 v -4.191 h 1.905 v 4.191 z m 1.905001,0 v -4.191 h 1.905 v 4.191 z m 1.905001,0 v -4.191 h 1.905 v 4.191 z m 3.810001,0 v -2.0955 h 1.905 v 2.0955 z m 1.905003,0 v -4.191 h 1.905 v 4.191 z m 1.905001,0 v -4.191 h 1.905 v 4.191 z m 1.905,0 v -4.191 h 1.905 v 4.191 z m 1.905003,0 v -2.0955 h 1.905 v 2.0955 z m 1.905,0 v -2.0955 h 1.905 v 2.0955 z m 1.905,0 v -2.0955 h 1.905 v 2.0955 z m 1.905,0 v -4.191 h 1.905 v 4.191 z m 1.905,0 v -4.191 h 1.905 v 4.191 z m 1.90501,-2.0955 v -2.0955 h 1.905 v 2.0955 z m 11.43,2.0955 v -4.191 h 1.905 v 4.191 z m 1.905,0 v -4.191 h 1.905 v 4.191 z m 1.905,0 v -4.191 h 1.905 v 4.191 z m 9.52501,0 v -2.0955 h 1.905 v 2.0955 z m 1.905,0 v -4.191 h 1.905 v 4.191 z m 1.90501,0 v -4.191 h 1.905 v 4.191 z m 1.90499,0 v -4.191 h 1.905 v 4.191 z m 1.905,0 v -2.0955 h 1.905 v 2.0955 z m 1.90501,0 v -2.0955 h 1.905 v 2.0955 z m 1.905,0 v -2.0955 h 1.905 v 2.0955 z m 1.905,0 v -4.191 h 1.905 v 4.191 z m 1.905,0 v -4.191 h 1.905 v 4.191 z m 1.905,0 v -4.191 h 1.905 v 4.191 z m 1.905,0 v -2.0955 h 1.905 v 2.0955 z m 3.81001,0 v -4.191 h 1.905 v 4.191 z m 1.90499,0 v -4.191 h 1.905 v 4.191 z m 1.905,0 v -4.191 h 1.905 v 4.191 z m 7.62001,0 v -4.191 h 1.905 v 4.191 z m 1.905,0 v -4.191 h 1.905 v 4.191 z m 1.905,0 v -4.191 h 1.905 v 4.191 z m 5.71501,0 v -4.191 h 1.905 v 4.191 z m 1.905,0 v -4.191 h 1.905 v 4.191 z m 1.905,0 v -4.191 h 1.905 v 4.191 z m 1.905,0 v -2.0955 h 1.905 v 2.0955 z m 1.905,0 v -2.0955 h 1.905 v 2.0955 z m 1.905,0 v -2.0955 h 1.905 v 2.0955 z m 1.905,0 v -4.191 h 1.905 v 4.191 z m 1.905,0 v -4.191 h 1.905 v 4.191 z m 1.90501,-2.0955 v -2.0955 h 1.905 v 2.0955 z"
         id="path33" />
      <path
         style="font-family:'JetBrainsMono Nerd Font';-inkscape-font-specification:'JetBrainsMono Nerd Font';fill:#000000;stroke-width:0.265"
         d="m 72.173073,145.45969 v -4.191 h 1.905 v 4.191 z m 1.905001,0 v -4.191 h 1.905 v 4.191 z m 1.905001,0 v -4.191 h 1.905 v 4.191 z m 1.905001,-2.0955 v -2.0955 h 1.905 v 2.0955 z m 1.905001,0 v -2.0955 h 1.905 v 2.0955 z m 1.905001,0 v -2.0955 h 1.905 v 2.0955 z m 1.905002,2.0955 v -4.191 h 1.905 v 4.191 z m 1.905001,0 v -4.191 h 1.905 v 4.191 z m 1.905001,0 v -4.191 h 1.905 v 4.191 z m 3.810001,-2.0955 v -2.0955 h 1.905 v 2.0955 z m 1.905003,2.0955 v -4.191 h 1.905 v 4.191 z m 1.905001,0 v -4.191 h 1.905 v 4.191 z m 1.905,0 v -4.191 h 1.905 v 4.191 z m 1.905003,-2.0955 v -2.0955 h 1.905 v 2.0955 z m 1.905,0 v -2.0955 h 1.905 v 2.0955 z m 1.905,0 v -2.0955 h 1.905 v 2.0955 z m 1.905,0 v -2.0955 h 1.905 v 2.0955 z m 15.24001,2.0955 v -4.191 h 1.905 v 4.191 z m 1.905,0 v -4.191 h 1.905 v 4.191 z m 1.905,0 v -4.191 h 1.905 v 4.191 z m 7.62001,-2.0955 v -2.0955 h 1.905 v 2.0955 z m 1.905,0 v -2.0955 h 1.905 v 2.0955 z m 1.905,2.0955 v -4.191 h 1.905 v 4.191 z m 1.90501,0 v -4.191 h 1.905 v 4.191 z m 1.90499,0 v -4.191 h 1.905 v 4.191 z m 1.905,-2.0955 v -2.0955 h 1.905 v 2.0955 z m 1.90501,0 v -2.0955 h 1.905 v 2.0955 z m 1.905,0 v -2.0955 h 1.905 v 2.0955 z m 1.905,2.0955 v -4.191 h 1.905 v 4.191 z m 1.905,0 v -4.191 h 1.905 v 4.191 z m 1.905,0 v -4.191 h 1.905 v 4.191 z m 5.71501,0 v -4.191 h 1.905 v 4.191 z m 1.90499,0 v -4.191 h 1.905 v 4.191 z m 1.905,0 v -4.191 h 1.905 v 4.191 z m 7.62001,0 v -4.191 h 1.905 v 4.191 z m 1.905,0 v -4.191 h 1.905 v 4.191 z m 1.905,0 v -4.191 h 1.905 v 4.191 z m 5.71501,0 v -4.191 h 1.905 v 4.191 z m 1.905,0 v -4.191 h 1.905 v 4.191 z m 1.905,0 v -4.191 h 1.905 v 4.191 z m 1.905,-2.0955 v -2.0955 h 1.905 v 2.0955 z m 1.905,0 v -2.0955 h 1.905 v 2.0955 z m 1.905,0 v -2.0955 h 1.905 v 2.0955 z m 1.905,0 v -2.0955 h 1.905 v 2.0955 z"
         id="path34" />
      <path
         style="font-family:'JetBrainsMono Nerd Font';-inkscape-font-specification:'JetBrainsMono Nerd Font';fill:#000000;stroke-width:0.265"
         d="m 72.173073,149.43805 v -4.191 h 1.905 v 4.191 z m 1.905001,0 v -4.191 h 1.905 v 4.191 z m 1.905001,0 v -4.191 h 1.905 v 4.191 z m 7.620005,0 v -4.191 h 1.905 v 4.191 z m 1.905001,0 v -4.191 h 1.905 v 4.191 z m 1.905001,0 v -4.191 h 1.905 v 4.191 z m 3.810001,0 v -4.191 h 1.905 v 4.191 z m 1.905003,0 v -4.191 h 1.905 v 4.191 z m 1.905001,0 v -4.191 h 1.905 v 4.191 z m 1.905,0 v -4.191 h 1.905 v 4.191 z m 1.905003,0 v -4.191 h 1.905 v 4.191 z m 1.905,0 v -4.191 h 1.905 v 4.191 z m 1.905,0 v -4.191 h 1.905 v 4.191 z m 1.905,0 v -4.191 h 1.905 v 4.191 z m 1.905,0 v -4.191 h 1.905 v 4.191 z m 1.90501,0 v -4.191 h 1.905 v 4.191 z m 11.43,0 v -4.191 h 1.905 v 4.191 z m 1.905,0 v -4.191 h 1.905 v 4.191 z m 1.905,0 v -4.191 h 1.905 v 4.191 z m 11.43001,0 v -4.191 h 1.905 v 4.191 z m 1.90501,0 v -4.191 h 1.905 v 4.191 z m 1.90499,0 v -4.191 h 1.905 v 4.191 z m 7.62001,0 v -4.191 h 1.905 v 4.191 z m 1.905,0 v -4.191 h 1.905 v 4.191 z m 1.905,0 v -4.191 h 1.905 v 4.191 z m 5.71501,0 v -4.191 h 1.905 v 4.191 z m 1.90499,0 v -4.191 h 1.905 v 4.191 z m 1.905,0 v -4.191 h 1.905 v 4.191 z m 7.62001,0 v -4.191 h 1.905 v 4.191 z m 1.905,0 v -4.191 h 1.905 v 4.191 z m 1.905,0 v -4.191 h 1.905 v 4.191 z m 5.71501,0 v -4.191 h 1.905 v 4.191 z m 1.905,0 v -4.191 h 1.905 v 4.191 z m 1.905,0 v -4.191 h 1.905 v 4.191 z m 1.905,0 v -4.191 h 1.905 v 4.191 z m 1.905,0 v -4.191 h 1.905 v 4.191 z m 1.905,0 v -4.191 h 1.905 v 4.191 z m 1.905,0 v -4.191 h 1.905 v 4.191 z m 1.905,0 v -4.191 h 1.905 v 4.191 z m 1.90501,0 v -4.191 h 1.905 v 4.191 z"
         id="path35" />
      <path
         style="font-family:'JetBrainsMono Nerd Font';-inkscape-font-specification:'JetBrainsMono Nerd Font';fill:#000000;stroke-width:0.265"
         d="m 72.173073,153.41641 v -4.191 h 1.905 v 4.191 z m 1.905001,0 v -4.191 h 1.905 v 4.191 z m 1.905001,0 v -4.191 h 1.905 v 4.191 z m 7.620005,0 v -4.191 h 1.905 v 4.191 z m 1.905001,0 v -4.191 h 1.905 v 4.191 z m 1.905001,0 v -4.191 h 1.905 v 4.191 z m 5.715004,0 v -4.191 h 1.905 v 4.191 z m 1.905001,0 v -4.191 h 1.905 v 4.191 z m 1.905,0 v -4.191 h 1.905 v 4.191 z m 7.620003,0 v -4.191 h 1.905 v 4.191 z m 1.905,0 v -4.191 h 1.905 v 4.191 z m 1.90501,0 v -4.191 h 1.905 v 4.191 z m 11.43,0 v -4.191 h 1.905 v 4.191 z m 1.905,0 v -4.191 h 1.905 v 4.191 z m 1.905,0 v -4.191 h 1.905 v 4.191 z m 11.43001,0 v -4.191 h 1.905 v 4.191 z m 1.90501,0 v -4.191 h 1.905 v 4.191 z m 1.90499,0 v -4.191 h 1.905 v 4.191 z m 7.62001,0 v -4.191 h 1.905 v 4.191 z m 1.905,0 v -4.191 h 1.905 v 4.191 z m 1.905,0 v -4.191 h 1.905 v 4.191 z m 5.71501,0 v -4.191 h 1.905 v 4.191 z m 1.90499,0 v -4.191 h 1.905 v 4.191 z m 1.905,0 v -4.191 h 1.905 v 4.191 z m 7.62001,0 v -4.191 h 1.905 v 4.191 z m 1.905,0 v -4.191 h 1.905 v 4.191 z m 1.905,0 v -4.191 h 1.905 v 4.191 z m 5.71501,0 v -4.191 h 1.905 v 4.191 z m 1.905,0 v -4.191 h 1.905 v 4.191 z m 1.905,0 v -4.191 h 1.905 v 4.191 z m 7.62,0 v -4.191 h 1.905 v 4.191 z m 1.905,0 v -4.191 h 1.905 v 4.191 z m 1.90501,0 v -4.191 h 1.905 v 4.191 z"
         id="path36" />
      <path
         style="font-family:'JetBrainsMono Nerd Font';-inkscape-font-specification:'JetBrainsMono Nerd Font';fill:#000000;stroke-width:0.265"
         d="m 72.173073,157.39477 v -4.191 h 1.905 v 4.191 z m 1.905001,0 v -4.191 h 1.905 v 4.191 z m 1.905001,0 v -4.191 h 1.905 v 4.191 z m 7.620005,0 v -4.191 h 1.905 v 4.191 z m 1.905001,-2.0955 v -2.0955 h 1.905 v 2.0955 z m 7.620005,2.0955 v -4.191 h 1.905 v 4.191 z m 1.905001,0 v -4.191 h 1.905 v 4.191 z m 1.905,0 v -4.191 h 1.905 v 4.191 z m 7.620003,0 v -4.191 h 1.905 v 4.191 z m 1.905,0 v -4.191 h 1.905 v 4.191 z m 1.90501,-2.0955 v -2.0955 h 1.905 v 2.0955 z m 11.43,2.0955 v -4.191 h 1.905 v 4.191 z m 1.905,0 v -4.191 h 1.905 v 4.191 z m 1.905,-2.0955 v -2.0955 h 1.905 v 2.0955 z m 11.43001,2.0955 v -4.191 h 1.905 v 4.191 z m 1.90501,0 v -4.191 h 1.905 v 4.191 z m 1.90499,0 v -4.191 h 1.905 v 4.191 z m 7.62001,0 v -4.191 h 1.905 v 4.191 z m 1.905,-2.0955 v -2.0955 h 1.905 v 2.0955 z m 9.525,0 v -2.0955 h 1.905 v 2.0955 z m 1.905,2.0955 v -4.191 h 1.905 v 4.191 z m 1.90501,0 v -4.191 h 1.905 v 4.191 z m 1.905,0 v -4.191 h 1.905 v 4.191 z m 1.905,0 v -4.191 h 1.905 v 4.191 z m 1.905,0 v -4.191 h 1.905 v 4.191 z m 1.905,-2.0955 v -2.0955 h 1.905 v 2.0955 z m 7.62001,2.0955 v -4.191 h 1.905 v 4.191 z m 1.905,0 v -4.191 h 1.905 v 4.191 z m 1.905,0 v -4.191 h 1.905 v 4.191 z m 7.62,0 v -4.191 h 1.905 v 4.191 z m 1.905,0 v -4.191 h 1.905 v 4.191 z m 1.90501,-2.0955 v -2.0955 h 1.905 v 2.0955 z"
         id="path37" />
      <path
         style="font-family:'JetBrainsMono Nerd Font';-inkscape-font-specification:'JetBrainsMono Nerd Font';fill:#000000;stroke-width:0.265"
         d="m 93.128086,159.27763 v -2.0955 h 1.905 v 2.0955 z m 1.905001,0 v -2.0955 h 1.905 v 2.0955 z m 1.905,0 v -2.0955 h 1.905 v 2.0955 z m 7.620003,0 v -2.0955 h 1.905 v 2.0955 z m 15.24001,0 v -2.0955 h 1.905 v 2.0955 z m 57.15004,0 v -2.0955 h 1.905 v 2.0955 z m 1.905,0 v -2.0955 h 1.905 v 2.0955 z m 1.905,0 v -2.0955 h 1.905 v 2.0955 z m 7.62,0 v -2.0955 h 1.905 v 2.0955 z"
         id="path38" />
    </g>
  </g>
</svg>
